<?xml version="1.0" encoding="UTF-8"?>
<svg width="244px" height="71px" viewBox="0 0 244 71" version="1.1" xmlns="http://www.w3.org/2000/svg" xmlns:xlink="http://www.w3.org/1999/xlink">
    <!-- Generator: Sketch 41.2 (35397) - http://www.bohemiancoding.com/sketch -->
    <title>headless-logo</title>
    <desc>Created with Sketch.</desc>
    <defs></defs>
    <g id="Final" stroke="none" stroke-width="1" fill="none" fill-rule="evenodd">
        <g id="headless-logo" transform="translate(0.000000, -7.000000)">
            <path d="M243.019027,34.8068649 C243.019027,21.8969254 232.488445,11.4305075 219.500995,11.4305075 C206.512081,11.4305075 195.982231,21.8969254 195.982231,34.8068649 C195.982231,39.7622688 197.53771,44.3547805 200.184074,48.135694 C200.184806,48.1371484 201.887346,54.9121032 195.982231,58.1832224 C195.982231,58.1832224 212.382078,61.8237789 225.873632,57.303991 C230.702496,55.9564178 234.899219,53.1150966 237.932623,49.3145477 C237.997008,49.2367332 238.058466,49.153828 238.119925,49.0738318 C238.474041,48.6171259 238.817183,48.1495115 239.139108,47.6666251 C239.142034,47.6615344 239.146424,47.6564437 239.150814,47.6513531 L239.147887,47.6528075 C241.59378,43.9678896 243.019027,39.552824 243.019027,34.8068649 Z" id="Shape" fill="#313D3E"></path>
            <path d="M212.117351,36.4533907 L212.146429,36.5117012 C212.159352,38.0666571 211.791043,39.2393353 211.041489,40.0297711 C210.291938,40.8202069 209.18701,41.215419 207.726675,41.215419 C206.266339,41.215419 205.100027,40.7667561 204.227702,39.869417 C203.355377,38.9720781 202.919223,37.7005968 202.919223,36.0549353 L202.919223,31.8274204 C202.919223,30.1882378 203.34084,28.9167566 204.184087,28.0129386 C205.027333,27.1091205 206.156492,26.6572183 207.571596,26.6572183 C209.070701,26.6572183 210.20309,27.0589092 210.968797,27.862303 C211.734503,28.6656968 212.130275,29.8545722 212.156121,31.428965 L212.127043,31.4872755 L209.471315,31.4872755 C209.510085,30.560781 209.384083,29.8934558 209.093309,29.48528 C208.802534,29.0771041 208.295302,28.8730192 207.571596,28.8730192 C206.951276,28.8730192 206.47635,29.1159774 206.146806,29.6019011 C205.817262,30.0878247 205.652491,30.8231782 205.652491,31.8079835 L205.652491,36.0549353 C205.652491,37.0526985 205.828569,37.7945309 206.18073,38.2804546 C206.53289,38.7663783 207.0482,39.0093365 207.726675,39.0093365 C208.392226,39.0093365 208.855843,38.8165896 209.11754,38.4310901 C209.379238,38.0455908 209.49393,37.3863641 209.461622,36.4533907 L212.117351,36.4533907 Z M217.341579,26.8613052 L219.871306,37.2503015 L219.929461,37.2503015 L222.488266,26.8613052 L226.084162,26.8613052 L226.084162,41.011332 L223.341201,41.011332 L223.341201,36.9004382 L223.57382,31.3998097 L223.515665,31.3900913 L220.821166,41.011332 L218.989293,41.011332 L216.323872,31.4678387 L216.265717,31.4775571 L216.508028,36.9004382 L216.508028,41.011332 L213.765067,41.011332 L213.765067,26.8613052 L217.341579,26.8613052 Z M234.439049,37.3183305 C234.439049,36.7676171 234.296894,36.3319119 234.012582,36.0112024 C233.728269,35.6904928 233.227497,35.3746471 232.510253,35.0636559 C231.043455,34.5518163 229.943375,33.9703364 229.209976,33.3191986 C228.476577,32.6680609 228.109883,31.7561578 228.109883,30.583462 C228.109883,29.4237241 228.536347,28.4794266 229.389286,27.7505411 C230.242224,27.0216556 231.330999,26.6572183 232.65564,26.6572183 C233.999664,26.6572183 235.091669,27.0637683 235.931685,27.8768806 C236.771701,28.6899929 237.17878,29.7152765 237.152934,30.9527621 L237.133548,31.0110727 L234.458433,31.0110727 C234.458433,30.3631744 234.296894,29.8383847 233.973812,29.4366878 C233.650729,29.0349909 233.195189,28.8341455 232.607177,28.8341455 C232.057935,28.8341455 231.629857,29.0009768 231.322929,29.3346444 C231.016,29.668312 230.862537,30.0878198 230.862537,30.5931804 C230.862537,31.0596671 231.033768,31.4435411 231.376237,31.7448138 C231.718705,32.0460865 232.313168,32.3813688 233.159647,32.7506708 C234.49721,33.2041995 235.503599,33.7792006 236.178842,34.4756912 C236.854086,35.1721818 237.191703,36.1132398 237.191703,37.2988937 C237.191703,38.5234213 236.784624,39.4822963 235.970454,40.1755475 C235.156285,40.8687987 234.073973,41.215419 232.723486,41.215419 C231.37946,41.215419 230.214764,40.8218267 229.229361,40.0346304 C228.243957,39.247434 227.767416,38.1184882 227.799725,36.6477592 L227.81911,36.5894486 L230.503916,36.5894486 C230.503916,37.4641113 230.688072,38.0925631 231.056386,38.4748231 C231.4247,38.8570831 231.980396,39.0482102 232.723486,39.0482102 C233.305035,39.0482102 233.736345,38.892717 234.017428,38.5817258 C234.298509,38.2707346 234.439049,37.8496071 234.439049,37.3183305 Z" id="CMS" fill="#FFFFFF"></path>
            <text id="headless" font-family="Debby" font-size="77.8" font-weight="normal" fill="#FFFFFF">
                <tspan x="0" y="70">headless</tspan>
            </text>
        </g>
    </g>
</svg>