<?xml version="1.0" encoding="UTF-8"?>
<svg width="244px" height="71px" viewBox="0 0 244 71" version="1.1" xmlns="http://www.w3.org/2000/svg" xmlns:xlink="http://www.w3.org/1999/xlink">
    <!-- Generator: Sketch 41.2 (35397) - http://www.bohemiancoding.com/sketch -->
    <title>headless-logo</title>
    <desc>Created with Sketch.</desc>
    <defs></defs>
    <g id="Final" stroke="none" stroke-width="1" fill="none" fill-rule="evenodd">
        <g id="headless-logo">
            <path d="M243.019027,27.8068649 C243.019027,14.8969254 232.488445,4.43050746 219.500995,4.43050746 C206.512081,4.43050746 195.982231,14.8969254 195.982231,27.8068649 C195.982231,32.7622688 197.53771,37.3547805 200.184074,41.135694 C200.184806,41.1371484 201.887346,47.9121032 195.982231,51.1832224 C195.982231,51.1832224 212.382078,54.8237789 225.873632,50.303991 C230.702496,48.9564178 234.899219,46.1150966 237.932623,42.3145477 C237.997008,42.2367332 238.058466,42.153828 238.119925,42.0738318 C238.474041,41.6171259 238.817183,41.1495115 239.139108,40.6666251 C239.142034,40.6615344 239.146424,40.6564437 239.150814,40.6513531 L239.147887,40.6528075 C241.59378,36.9678896 243.019027,32.552824 243.019027,27.8068649 Z" id="Shape" fill="#313D3E"></path>
            <path d="M212.117351,29.4533907 L212.146429,29.5117012 C212.159352,31.0666571 211.791043,32.2393353 211.041489,33.0297711 C210.291938,33.8202069 209.18701,34.215419 207.726675,34.215419 C206.266339,34.215419 205.100027,33.7667561 204.227702,32.869417 C203.355377,31.9720781 202.919223,30.7005968 202.919223,29.0549353 L202.919223,24.8274204 C202.919223,23.1882378 203.34084,21.9167566 204.184087,21.0129386 C205.027333,20.1091205 206.156492,19.6572183 207.571596,19.6572183 C209.070701,19.6572183 210.20309,20.0589092 210.968797,20.862303 C211.734503,21.6656968 212.130275,22.8545722 212.156121,24.428965 L212.127043,24.4872755 L209.471315,24.4872755 C209.510085,23.560781 209.384083,22.8934558 209.093309,22.48528 C208.802534,22.0771041 208.295302,21.8730192 207.571596,21.8730192 C206.951276,21.8730192 206.47635,22.1159774 206.146806,22.6019011 C205.817262,23.0878247 205.652491,23.8231782 205.652491,24.8079835 L205.652491,29.0549353 C205.652491,30.0526985 205.828569,30.7945309 206.18073,31.2804546 C206.53289,31.7663783 207.0482,32.0093365 207.726675,32.0093365 C208.392226,32.0093365 208.855843,31.8165896 209.11754,31.4310901 C209.379238,31.0455908 209.49393,30.3863641 209.461622,29.4533907 L212.117351,29.4533907 Z M217.341579,19.8613052 L219.871306,30.2503015 L219.929461,30.2503015 L222.488266,19.8613052 L226.084162,19.8613052 L226.084162,34.011332 L223.341201,34.011332 L223.341201,29.9004382 L223.57382,24.3998097 L223.515665,24.3900913 L220.821166,34.011332 L218.989293,34.011332 L216.323872,24.4678387 L216.265717,24.4775571 L216.508028,29.9004382 L216.508028,34.011332 L213.765067,34.011332 L213.765067,19.8613052 L217.341579,19.8613052 Z M234.439049,30.3183305 C234.439049,29.7676171 234.296894,29.3319119 234.012582,29.0112024 C233.728269,28.6904928 233.227497,28.3746471 232.510253,28.0636559 C231.043455,27.5518163 229.943375,26.9703364 229.209976,26.3191986 C228.476577,25.6680609 228.109883,24.7561578 228.109883,23.583462 C228.109883,22.4237241 228.536347,21.4794266 229.389286,20.7505411 C230.242224,20.0216556 231.330999,19.6572183 232.65564,19.6572183 C233.999664,19.6572183 235.091669,20.0637683 235.931685,20.8768806 C236.771701,21.6899929 237.17878,22.7152765 237.152934,23.9527621 L237.133548,24.0110727 L234.458433,24.0110727 C234.458433,23.3631744 234.296894,22.8383847 233.973812,22.4366878 C233.650729,22.0349909 233.195189,21.8341455 232.607177,21.8341455 C232.057935,21.8341455 231.629857,22.0009768 231.322929,22.3346444 C231.016,22.668312 230.862537,23.0878198 230.862537,23.5931804 C230.862537,24.0596671 231.033768,24.4435411 231.376237,24.7448138 C231.718705,25.0460865 232.313168,25.3813688 233.159647,25.7506708 C234.49721,26.2041995 235.503599,26.7792006 236.178842,27.4756912 C236.854086,28.1721818 237.191703,29.1132398 237.191703,30.2988937 C237.191703,31.5234213 236.784624,32.4822963 235.970454,33.1755475 C235.156285,33.8687987 234.073973,34.215419 232.723486,34.215419 C231.37946,34.215419 230.214764,33.8218267 229.229361,33.0346304 C228.243957,32.247434 227.767416,31.1184882 227.799725,29.6477592 L227.81911,29.5894486 L230.503916,29.5894486 C230.503916,30.4641113 230.688072,31.0925631 231.056386,31.4748231 C231.4247,31.8570831 231.980396,32.0482102 232.723486,32.0482102 C233.305035,32.0482102 233.736345,31.892717 234.017428,31.5817258 C234.298509,31.2707346 234.439049,30.8496071 234.439049,30.3183305 Z" id="CMS" fill="#FFFFFF"></path>
            <path d="M170.863822,53.681331 C170.325307,58.3413953 166.437575,60.8768698 163.6912,61.5996 C162.1352,65.4118 160.268,68.057 155.4444,68.835 C149.4538,69.8464 147.042,68.3682 146.7308,63.8558 C146.4974,61.2884 147.6644,58.6432 149.9206,57.7096 C152.0212,56.776 153.9662,57.7874 156.6114,57.4762 C156.9226,55.7646 156.6892,53.8974 156.6114,52.1858 C156.6114,49.1516 155.6778,46.1174 154.2774,43.4722 C153.9662,43.0054 153.655,42.4608 153.266,42.0718 C152.7992,43.4722 151.9434,45.495 150.6208,47.7512 C149.520619,49.7199447 148.420438,51.8610751 146.7429,54.1104405 C146.49968,55.0607839 146.135602,56.2131962 145.6416,57.0872 C144.0078,59.8102 141.596,61.444 138.5618,63.6224 C136.7724,64.8672 135.1386,64.7116 132.7268,64.0892 C129.2258,63.1556 126.036,60.4326 124.7912,57.3206 C124.707993,57.1125826 124.647033,56.8823177 124.584528,56.6060119 C123.255866,59.7485783 121.994662,61.6261274 120.979,63.5446 C120.2788,66.0342 116.7,70.1576 114.1326,70.4688 C111.7208,70.7022 109.698,70.002 108.2198,67.8236 C106.5082,65.334 106.4304,61.6774 105.8858,58.721 C105.837622,58.5122285 105.812649,58.2968272 105.802669,58.0768487 C104.603183,60.4707916 103.495824,62.0725643 102.1514,64.0892 C101.2178,65.6452 100.1286,67.2012 99.1172,68.6794 C98.9616,68.9128 98.4948,69.224 98.1058,69.224 C95.9274,69.3018 93.8268,69.613 91.6484,68.7572 C91.6484,68.7572 89.5478,64.0892 89.3144,60.5882 C89.3144,59.6546 89.3144,58.721 89.2366,57.7874 C89.2366,57.0094 89.1588,56.3092 89.081,55.5312 C88.9254,55.5312 88.7698,55.4534 88.6142,55.4534 L87.8362,56.6204 L84.1018,64.6338 C83.4794,65.9564 82.5458,66.89 81.0676,67.279 C76.3996,68.446 72.8208,65.4118 73.521,60.666 C73.665148,59.6981492 73.828373,58.7371116 74.0130193,57.7837889 C72.5096997,60.5737013 71.2350555,62.2799299 70.0978,64.0892 C67.9972,66.6566 64.1072,66.1898 62.7068,63.1556 C62.0844,61.9886 61.7732,60.7438 61.1508,59.11 C60.2172,60.666 59.4392,61.9886 58.8168,63.3112 C57.3386,66.4232 55.7048,66.501 53.1374,66.2676 C51.1146,66.112 49.2474,65.334 48.0804,63.389 C47.930991,63.1399849 47.654058,60.8187063 47.6373596,58.3027312 C46.0579631,60.340056 43.9444142,61.7881744 41.3896,63.6224 C39.6002,64.8672 37.9664,64.7116 35.5546,64.0892 C32.0536,63.1556 28.8638,60.4326 27.619,57.3206 C27.5700829,57.1983074 27.5288551,57.0683255 27.4904818,56.9258199 C26.8979316,58.0422172 26.2955765,58.877515 25.5962,59.6546 C23.8068,61.5996 20.9282,61.833 18.5942,60.8994 C16.727,60.1214 15.6378,58.6432 15.4044,56.6204 C14.9376,53.5862 14.7042,50.4742 14.393,47.2844 C12.7592,48.9182 12.3702,51.0966 11.8256,53.1194 C10.8142,56.3092 9.9584,59.5768 9.0248,62.7666 C8.7914,63.5446 8.4024,64.3226 8.0134,65.1006 C6.613,67.9792 5.2126,67.8236 2.4118,67.279 C1.0114,66.9678 0.4668,65.8008 0.4668,64.4004 C0.389,61.1328 0.3112,57.8652 0.3112,54.5976 C0.3112,53.8196 0.2334,52.9638 0.2334,51.6412 C0.7002,47.9068 0.7002,45.2616 1.7894,39.3488 C2.2562,34.2918 2.334,29.2348 2.9564,24.1778 C3.501,19.9766 4.4346,15.7754 5.2126,11.5742 C5.7572,8.7734 6.3796,5.9726 7.002,3.1718 C7.2354,2.2382 7.5466,1.3824 7.8578,0.2932 C9.1804,0.2932 10.4252,0.2154 11.67,0.4488 C13.226,0.6044 13.7706,1.3046 13.7706,2.9384 C13.7706,3.9498 13.615,4.9612 13.4594,5.9726 C12.837,9.9404 12.1368,13.9082 11.3588,17.876 C10.7364,21.377 9.8806,24.8002 9.1026,28.3012 C9.0248,28.6902 8.947,29.0792 9.0248,29.3904 C9.5694,35.381 8.7914,41.216 7.78,47.051 C7.2354,50.6298 6.4574,54.2086 5.7572,57.7874 C5.6794,58.2542 5.835,58.7988 6.3018,59.4212 C7.4688,56.3092 8.558,53.1972 9.8028,50.0852 C11.0476,46.9732 12.448,43.7834 13.8484,40.6714 C15.171,37.5594 16.5714,34.5252 18.0496,31.3354 C19.2166,31.2576 20.5392,30.8686 21.784,31.0242 C23.4956,31.1798 24.1958,32.4246 24.0402,34.1362 C23.8846,36.159 23.5734,38.104 23.4178,40.1268 C23.34,41.8384 23.2622,43.55 23.2622,45.2616 C23.1844,45.6506 23.4178,46.0396 23.2622,46.4286 C22.2508,49.3072 23.8846,52.1858 23.6512,55.0644 C23.6512,55.4534 23.8068,55.9202 23.9624,56.6982 C25.1341896,55.7868081 26.1123004,54.899626 27.0587938,54.1176845 C26.9349154,52.5777231 26.9904958,50.9354139 27.8524,48.0624 C28.7082,44.8726 30.342,41.7606 31.6646,38.6486 C32.2092,37.4816 32.9094,36.3146 33.6096,35.2254 C33.9986,34.603 34.621,34.0584 35.0878,33.5138 C36.0992,32.4246 37.4996,32.1134 39.2112,32.4246 C40.067,32.5802 41.0006,32.5802 41.9342,32.7358 C42.4788,32.8136 43.0234,32.9692 43.4124,33.2026 C44.5016,33.9028 45.6686,34.4474 47.069,34.8364 C48.1582,35.1476 48.7028,35.9256 48.4694,36.7814 C48.3138,37.326 48.1582,37.7928 47.847,38.2596 C45.5908,42.2274 42.5566,45.8062 38.8222,49.1516 C37.4996,50.3964 36.0992,51.719 35.1656,53.1972 C34.5432,54.2086 34.4654,55.4534 34.4654,56.6204 C34.4654,58.4098 36.0214,60.8216 37.8886,61.9108 C38.6666,61.2884 40.3782,60.1214 41.234,59.4212 C43.5662882,57.3601081 46.0876444,55.5637113 47.9544773,54.0847341 C49.1167935,49.2637542 50.5811863,46.7161114 51.8926,43.939 C52.3594,42.9276 52.904,41.8384 53.5264,40.9048 C54.071,40.049 54.7712,39.66 55.8604,39.7378 C57.572,39.9712 59.2836,39.7378 60.9952,39.9712 C62.1622,40.049 63.2514,40.438 64.3406,40.827 C64.6518,40.9826 64.8852,41.4494 65.352,42.2274 C64.0294,42.383 63.0958,42.6942 62.1622,42.6164 C60.8396,42.5386 60.0616,43.0832 59.2836,44.1724 C57.8054,46.3508 56.8718,48.7626 56.0938,51.33 C55.3158,53.8974 54.6934,56.387 54.5378,59.11 L54.5378,61.3662 C55.238,60.7438 55.627,60.4326 55.8604,60.0436 C57.2608,57.6318 58.5056,55.22 59.906,52.9638 C61.1508,51.0188 62.5512,49.2294 63.8738,47.44 C64.4184,46.662 65.1186,46.273 66.0522,46.5064 C66.4412,46.5842 66.8302,46.5064 67.2192,46.5842 C70.4868,46.8176 70.8758,47.44 69.8644,50.552 C68.9308,53.3528 68.464,56.3092 68.3084,59.2656 C68.3084,59.5768 68.3862,59.9658 68.464,60.4326 C69.9632538,58.2814967 72.3909694,55.6388548 74.9692323,53.6486659 C76.2544472,48.9193038 78.1840673,44.4242015 81.0676,40.2824 C82.7792,37.8706 85.1132,37.9484 87.525,38.104 C89.3144,38.1818 91.026,38.5708 93.1266,38.882 C93.5156,38.1818 93.2822,37.4038 93.749,36.6258 C93.9046,36.2368 94.2158,35.77 94.0602,35.5366 C93.2044,33.7472 93.9046,32.0356 93.9824,30.1684 C93.2822,30.0128 93.4378,29.935 92.7376,29.7794 L92.7376,29.157 C92.8154,28.8458 92.8932,28.5346 92.8932,28.2234 C92.582,22.3106 94.8382,16.9424 96.7832,11.652 C97.7946,9.0068 99.7396,7.0618 101.7624,5.1946 C102.3848,4.65 103.474,4.1832 104.3298,4.261 C106.586,4.4944 108.92,4.9612 111.1762,5.5836 C113.0434,6.206 113.3546,7.0618 112.421,8.7734 C110.3982,12.5856 108.2198,16.2422 106.2748,20.0544 C104.641,23.2442 103.0072,26.434 101.8402,29.8572 C101.0622,32.269 100.6732,34.9142 100.751,37.6372 C100.8288,39.1932 100.0508,40.827 99.6618,42.4608 C99.5062,43.3944 98.9616,44.328 99.1172,45.106 C99.584,47.5956 98.7282,49.9296 98.5726,52.2636 L98.5726,52.3414 C98.806,55.1422 99.1172,57.943 99.4284,61.055 C99.8952,60.666 100.362,60.4326 100.6732,60.1214 C102.29901,57.7988145 103.751478,55.996255 105.83917,54.2285814 C105.703528,48.6664291 106.593185,43.2347448 107.753,37.8706 C108.6866,33.6694 109.5424,29.3904 110.7094,25.267 C111.7208,21.6882 113.1212,18.1872 115.0662,14.8418 C115.6886,13.6748 116.5444,12.8968 117.867,12.819 C120.2788,12.5856 122.6906,12.3522 125.0246,13.1302 C126.5806,13.597 126.6584,13.7526 126.3472,15.3086 L123.6242,27.4454 C123.3908,28.6124 122.8462,29.7016 122.535,30.7908 C120.3566,37.4038 118.9562,41.4494 115.9998,46.1952 C114.5994,48.5292 113.6658,49.4628 113.6658,50.8632 C113.6658,52.1858 113.6658,53.5084 113.5102,54.831 C113.199,57.7874 112.5766,64.7894 112.5766,67.1234 C112.5766,67.279 112.81,67.4346 112.9656,67.5902 L113.7436,67.9792 C114.0548,67.5902 119.5786,60.8994 119.7342,60.5104 C121.4579,57.7762557 122.455046,55.6778457 124.217402,53.9376326 C124.112652,52.4482292 124.196188,50.8237727 125.0246,48.0624 C125.8804,44.8726 127.5142,41.7606 128.8368,38.6486 C129.3814,37.4816 130.0816,36.3146 130.7818,35.2254 C131.1708,34.603 131.7932,34.0584 132.26,33.5138 C133.2714,32.4246 134.6718,32.1134 136.3834,32.4246 C137.2392,32.5802 138.1728,32.5802 139.1064,32.7358 C139.651,32.8136 140.1956,32.9692 140.5846,33.2026 C141.6738,33.9028 142.8408,34.4474 144.2412,34.8364 C145.3304,35.1476 145.875,35.9256 145.6416,36.7814 C145.486,37.326 145.3304,37.7928 145.0192,38.2596 C142.763,42.2274 139.7288,45.8062 135.9944,49.1516 C134.6718,50.3964 133.2714,51.719 132.3378,53.1972 C131.7154,54.2086 131.6376,55.4534 131.6376,56.6204 C131.6376,58.4098 133.1936,60.8216 135.0608,61.9108 C135.8388,61.2884 137.5504,60.1214 138.4062,59.4212 C140.913382,57.205551 143.63905,55.2957835 145.53525,53.7573946 C145.683861,53.1090882 145.862565,52.3596796 146.1084,51.4856 C147.042,48.5292 148.5202,44.5614 150.6208,39.1154 C150.6208,39.0376 150.6208,39.0376 150.543,38.9598 C152.0212,37.9484 153.7328,38.2596 155.211,38.9598 C159.1788,40.6714 162.213,43.3166 163.38,47.6734 C164.0024,49.8518 164.6248,53.1972 163.9246,57.7096 C165.843848,57.400044 167.221154,56.2036761 169.23269,54.2381133 C169.403149,53.4864556 169.606116,52.5845653 169.9152,51.4856 C170.8488,48.5292 172.327,44.5614 174.4276,39.1154 C174.4276,39.0376 174.4276,39.0376 174.3498,38.9598 C175.828,37.9484 177.5396,38.2596 179.0178,38.9598 C182.9856,40.6714 186.0198,43.3166 187.1868,47.6734 C187.8092,49.8518 188.4316,53.1972 187.7314,57.7096 C190.1432,57.3206 191.6992,55.5312 194.7334,52.5748 C194.7334,57.943 190.4544,60.8216 187.498,61.5996 C185.942,65.4118 184.0748,68.057 179.2512,68.835 C173.2606,69.8464 170.8488,68.3682 170.5376,63.8558 C170.3042,61.2884 171.4712,58.6432 173.7274,57.7096 C175.828,56.776 177.773,57.7874 180.4182,57.4762 C180.7294,55.7646 180.496,53.8974 180.4182,52.1858 C180.4182,49.1516 179.4846,46.1174 178.0842,43.4722 C177.773,43.0054 177.4618,42.4608 177.0728,42.0718 C176.606,43.4722 175.7502,45.495 174.4276,47.7512 C173.397597,49.5943625 172.367595,51.5886199 170.863822,53.681331 Z M36.6438,45.106 C36.4882,44.8726 36.2548,44.6392 36.2548,44.4836 C36.8772,41.605 38.1998,38.882 40.456,36.4702 C41.4674,35.381 41.623,35.381 43.6458,36.0034 C42.7122,38.2596 40.2226,41.5272 36.6438,45.106 Z M89.7034,44.717 C86.5914,50.6298 83.4016,56.4648 80.2118,62.3776 C79.9784,62.8444 79.5894,63.2334 79.0448,63.8558 C78.6558,61.3662 79.356,59.2656 79.9006,57.2428 C80.134,56.3092 80.6786,55.3756 80.912,54.3642 C81.7678,50.7854 83.5572,47.5956 85.2688,44.4058 C86.2024,42.5386 88.0696,41.4494 90.637,40.827 C90.248,42.383 90.248,43.6278 89.7034,44.717 Z M108.6866,8.6178 C106.5082,13.0524 105.5746,18.1094 102.4626,22.0772 C102.4626,22.155 102.307,22.155 102.1514,22.2328 C101.9958,22.0772 101.918,21.9994 101.918,21.9216 C102.8516,18.3428 103.7074,14.764 104.7966,11.263 C105.1856,9.9404 106.2748,8.8512 107.1306,7.762 C107.2862,7.5286 107.9864,7.5286 108.3754,7.6064 C108.531,7.6842 108.7644,8.3844 108.6866,8.6178 Z M92.5042,52.0302 C92.2708,51.719 92.1152,51.4078 91.8818,51.1744 C92.0374,51.0188 92.3486,50.8632 92.3486,50.941 C92.582,51.1744 92.7376,51.4856 92.8932,51.7968 L92.5042,52.0302 Z M94.6048,28.6124 C94.527,28.6124 94.2936,28.379 94.2936,28.379 L94.6048,27.9122 L94.9938,28.2234 C94.8382,28.379 94.7604,28.5346 94.6048,28.6124 Z M92.7376,48.0624 C92.7376,47.9068 92.6598,47.7512 92.6598,47.6734 C92.6598,47.5956 92.8932,47.5956 92.8932,47.5956 C92.971,47.6734 93.0488,47.829 93.0488,47.9068 L92.7376,48.0624 Z M94.7604,49.6184 L94.7604,49.2294 C94.7604,49.1516 94.916,49.1516 94.916,49.1516 L95.1494,49.4628 C94.9938,49.4628 94.916,49.5406 94.7604,49.6184 Z M122.6906,20.2878 C121.0568,28.9236 118.7228,37.4038 114.5216,45.1838 L114.1326,45.8062 C113.977,45.8062 113.8992,45.7284 113.7436,45.7284 C113.8992,44.0946 113.977,42.5386 114.2104,40.9826 C114.5216,38.6486 114.8328,36.3924 115.2996,34.0584 C115.6108,32.5024 115.922,30.8686 116.4666,29.3904 C117.478,26.5896 118.645,23.8666 119.6564,21.0658 C120.0454,19.9766 120.3566,18.9652 120.6678,17.876 C120.9012,17.0202 121.2124,16.0866 122.535,16.1644 C123.313,17.487 122.924,18.9652 122.6906,20.2878 Z M133.816,45.106 C133.6604,44.8726 133.427,44.6392 133.427,44.4836 C134.0494,41.605 135.372,38.882 137.6282,36.4702 C138.6396,35.381 138.7952,35.381 140.818,36.0034 C139.8844,38.2596 137.3948,41.5272 133.816,45.106 Z M151.1654,66.8122 C149.376,66.6566 148.0534,63.778 149.6094,60.9772 C150.0762,60.0436 150.6208,59.6546 151.6322,59.8102 C152.7992,60.0436 155.1332,60.1992 156.6892,60.5104 C156.5336,64.945 153.655,67.279 151.1654,66.8122 Z M174.9722,66.8122 C173.1828,66.6566 171.8602,63.778 173.4162,60.9772 C173.883,60.0436 174.4276,59.6546 175.439,59.8102 C176.606,60.0436 178.94,60.1992 180.496,60.5104 C180.3404,64.945 177.4618,67.279 174.9722,66.8122 Z" id="headless" fill="#FFFFFF"></path>
        </g>
    </g>
</svg>