<?xml version="1.0" encoding="UTF-8"?>
<svg width="250px" height="34px" viewBox="0 0 250 34" version="1.1" xmlns="http://www.w3.org/2000/svg" xmlns:xlink="http://www.w3.org/1999/xlink">
    <!-- Generator: Sketch 41.2 (35397) - http://www.bohemiancoding.com/sketch -->
    <title>jamstackcms-logo</title>
    <desc>Created with Sketch.</desc>
    <defs>
        <linearGradient x1="49.8455971%" y1="0%" x2="50.1567789%" y2="100%" id="linearGradient-1">
            <stop stop-color="#20C6B7" offset="0%"></stop>
            <stop stop-color="#4D9ABF" offset="100%"></stop>
        </linearGradient>
        <path d="M243.392756,15.4896863 C241.926758,16.7522405 240.019754,17.5164669 237.934844,17.5164669 L211.376533,17.5164669 C206.748992,17.5164669 203,13.7631654 203,9.13323345 C203,4.51272244 206.750302,0.75 211.376533,0.75 L237.934844,0.75 C242.562385,0.75 246.311377,4.50330146 246.311377,9.13323345 C246.311377,9.24043168 246.309358,9.34716818 246.305357,9.45340669 C246.319538,9.64643363 246.321915,9.85835707 246.311377,10.0902 C246.311377,12.7728347 246.982036,15.1691614 250,16.8458081 C245.632411,16.8458081 244.299401,15.8398202 243.964072,15.5044909 C243.764777,15.5044909 243.574432,15.4994706 243.392756,15.4896863 Z" id="path-2"></path>
    </defs>
    <g id="Page-1" stroke="none" stroke-width="1" fill="none" fill-rule="evenodd">
        <g id="jamstackcms-logo">
            <g id="jamstack-full-logo">
                <g id="Page-1">
                    <g id="jamstack-landing">
                        <g id="header">
                            <g id="jamstack-logo">
                                <path d="M13.0721615,0.773137905 L19.5562143,0.773137905 L19.5562143,23.364827 C19.5562143,26.5497056 18.635931,29.0759907 16.7953367,30.9437583 C14.9547424,32.8115258 12.6368504,33.7453956 9.84159106,33.7453956 C6.8172121,33.7453956 4.42294801,32.911982 2.65872695,31.2451296 C0.894505891,29.5782773 0.0429574176,27.1226835 0.104055982,23.8782745 L0.172791524,23.7443317 L6.51937321,23.7443317 C6.51937321,25.4558318 6.82868006,26.7059523 7.44730302,27.4947306 C8.06592599,28.283509 8.86401402,28.6778922 9.84159106,28.6778922 C10.7275203,28.6778922 11.4874223,28.209097 12.1213199,27.2714926 C12.7552175,26.3338882 13.0721615,25.0316793 13.0721615,23.364827 L13.0721615,0.773137905 Z M37.5921884,26.3785405 L28.7940391,26.3785405 L27.006915,33.2765957 L20.4312149,33.2765957 L29.8250722,0.773137905 L36.606979,0.773137905 L45.9779245,33.2765957 L39.4022244,33.2765957 L37.5921884,26.3785405 Z M30.1229262,21.2663895 L36.2633013,21.2663895 L33.2618493,9.7696307 L33.1243782,9.7696307 L30.1229262,21.2663895 Z M55.421956,0.773137905 L61.4019481,24.6372838 L61.5394192,24.6372838 L67.5881469,0.773137905 L76.0884422,0.773137905 L76.0884422,33.2765957 L69.6043894,33.2765957 L69.6043894,23.8336269 L70.1542738,11.1983541 L70.0168027,11.1760303 L63.6473091,33.2765957 L59.31697,33.2765957 L53.016212,11.3546207 L52.8787409,11.3769445 L53.4515371,23.8336269 L53.4515371,33.2765957 L46.9674843,33.2765957 L46.9674843,0.773137905 L55.421956,0.773137905 Z M101.61659,25.4855883 C101.61659,23.4466708 100.849051,21.8170494 99.3139497,20.5966754 C97.7788483,19.3763014 95.117282,18.2601223 91.329171,17.2481049 C87.5257853,16.25097 84.7420237,15.116188 82.9778027,13.8437248 C81.2135816,12.5712617 80.3314843,10.7146839 80.3314843,8.27393587 C80.3314843,5.84807043 81.3701443,3.91336014 83.4474955,2.46974697 C85.5248467,1.02613379 88.1749572,0.304338033 91.3979065,0.304338033 C94.6514051,0.304338033 97.3091528,1.18984005 99.3712294,2.96087064 C101.433306,4.73190124 102.43378,7.00890642 102.372681,9.7919545 L102.326858,9.92589732 L101.272913,9.92589732 C101.272913,7.50003189 100.356448,5.49090967 98.523491,3.89847039 C96.6905341,2.30603111 94.315363,1.50982342 91.3979065,1.50982342 C88.3735276,1.50982342 85.9792635,2.16836904 84.2150424,3.48548003 C82.4508213,4.80259102 81.568724,6.38384461 81.568724,8.22928826 C81.568724,10.0747319 82.2980772,11.6076178 83.7568055,12.8279918 C85.2155337,14.0483658 87.8541884,15.13478 91.6728487,16.0872671 C95.3693119,17.0397541 98.1607107,18.2043009 100.047129,19.5809423 C101.933547,20.9575838 102.876742,22.910897 102.876742,25.4409407 C102.876742,28.0156323 101.799896,30.0433575 99.6461715,31.5241772 C97.4924471,33.0049969 94.7965134,33.7453956 91.5582894,33.7453956 C88.213143,33.7453956 85.3339163,32.9826733 82.920523,31.4572058 C80.5071297,29.9317382 79.3386372,27.5319534 79.4150104,24.2577791 L79.4608341,24.1238363 L80.4918672,24.1238363 C80.4918672,27.0705931 81.6068993,29.2099362 83.8369969,30.5419298 C86.0670945,31.8739234 88.640833,32.5399102 91.5582894,32.5399102 C94.4910206,32.5399102 96.9005591,31.8850852 98.7869773,30.5754155 C100.673395,29.2657458 101.61659,27.5691537 101.61659,25.4855883 L101.61659,25.4855883 Z M126.804279,5.30573579 C126.804279,5.46835788 126.74169,5.6174259 126.616511,5.75294431 C126.491332,5.88846272 126.345291,5.95622091 126.178385,5.95622091 L116.497897,5.95622091 L116.497897,32.6667659 C116.497897,32.829388 116.428354,32.9716802 116.289265,33.0936468 C116.150177,33.2156134 115.997183,33.2765957 115.830277,33.2765957 C115.663371,33.2765957 115.510376,33.2223892 115.371288,33.1139745 C115.2322,33.0055597 115.162657,32.8564917 115.162657,32.6667659 L115.162657,5.95622091 L105.440442,5.95622091 C105.273536,5.95622091 105.127496,5.88846272 105.002316,5.75294431 C104.877137,5.6174259 104.814548,5.46835788 104.814548,5.30573579 C104.814548,5.1431137 104.870183,4.98726986 104.981453,4.83819961 C105.092724,4.68912936 105.245719,4.61459536 105.440442,4.61459536 L126.178385,4.61459536 C126.373109,4.61459536 126.526104,4.68912936 126.637374,4.83819961 C126.748645,4.98726986 126.804279,5.1431137 126.804279,5.30573579 L126.804279,5.30573579 Z M145.741175,23.5657412 L129.42794,23.5657412 L125.71622,33.2765957 L124.364421,33.2765957 L136.828466,0.773137905 L138.340648,0.773137905 L150.827605,33.2765957 L149.475806,33.2765957 L145.741175,23.5657412 Z M129.886177,22.3602559 L145.282938,22.3602559 L138.294825,4.05473701 L137.653293,2.22418513 L137.515822,2.22418513 L136.897202,4.05473701 L129.886177,22.3602559 Z M175.237423,23.3201794 L175.283247,23.4541222 C175.344345,26.7878269 174.309504,29.3364356 172.178691,31.1000249 C170.047879,32.8636142 167.241206,33.7453956 163.758588,33.7453956 C160.107948,33.7453956 157.182898,32.432025 154.98335,29.8052443 C152.783802,27.1784636 151.684044,23.7294705 151.684044,19.4581614 L151.684044,14.5915722 C151.684044,10.3351458 152.783802,6.88987322 154.98335,4.25565125 C157.182898,1.62142927 160.107948,0.304338033 163.758588,0.304338033 C167.241206,0.304338033 170.047879,1.18984005 172.178691,2.96087064 C174.309504,4.73190124 175.344345,7.261907 175.283247,10.5509638 L175.237423,10.6849066 L174.183478,10.6849066 C174.183478,7.75303246 173.24792,5.49090967 171.376777,3.89847039 C169.505633,2.30603111 166.966262,1.50982342 163.758588,1.50982342 C160.505089,1.50982342 157.885527,2.70785556 155.899824,5.10395578 C153.914121,7.500056 152.921284,10.6476808 152.921284,14.5469246 L152.921284,19.4581614 C152.921284,23.4020531 153.914121,26.5682809 155.899824,28.9569398 C157.885527,31.3455987 160.505089,32.5399102 163.758588,32.5399102 C166.966262,32.5399102 169.505633,31.7734673 171.376777,30.2405585 C173.24792,28.7076496 174.183478,26.4008797 174.183478,23.3201794 L175.237423,23.3201794 Z M186.747871,17.4043715 L181.638529,17.4043715 L181.638529,33.2765957 L180.401289,33.2765957 L180.401289,0.773137905 L181.638529,0.773137905 L181.638529,16.2212099 L187.091549,16.2212099 L201.25107,0.773137905 L202.717429,0.773137905 L202.763252,0.884756923 L188.122582,16.9802192 L203.817197,33.1426529 L203.748462,33.2765957 L202.305015,33.2765957 L186.747871,17.4043715 Z" id="JAMSTACK" fill="#4A4A4A"></path>
                                <path d="M126.595648,1.36216978 C126.595648,1.52479187 126.533059,1.66708407 126.40788,1.78905064 C126.2827,1.91101721 126.13666,1.97199958 125.969754,1.97199958 L105.440442,1.97199958 C105.273536,1.97199958 105.127496,1.91101721 105.002316,1.78905064 C104.877137,1.66708407 104.814548,1.52479187 104.814548,1.36216978 C104.814548,1.19954769 104.877137,1.05725549 105.002316,0.935288923 C105.127496,0.813322354 105.273536,0.752339984 105.440442,0.752339984 L125.969754,0.752339984 C126.13666,0.752339984 126.2827,0.813322354 126.40788,0.935288923 C126.533059,1.05725549 126.595648,1.19954769 126.595648,1.36216978 L126.595648,1.36216978 Z" id="Path" fill="url(#linearGradient-1)"></path>
                            </g>
                        </g>
                    </g>
                </g>
            </g>
            <mask id="mask-3" fill="white">
                <use xlink:href="#path-2"></use>
            </mask>
            <use id="Form" fill="#00C7B7" transform="translate(226.500000, 9.133233) scale(-1, 1) translate(-226.500000, -9.133233) " xlink:href="#path-2"></use>
            <path d="M222.625,11.3359375 L222.648438,11.3828125 C222.658854,12.6328188 222.361982,13.5755177 221.757812,14.2109375 C221.153643,14.8463573 220.263027,15.1640625 219.085938,15.1640625 C217.908848,15.1640625 216.968754,14.803389 216.265625,14.0820312 C215.562496,13.3606735 215.210938,12.3385483 215.210938,11.015625 L215.210938,7.6171875 C215.210938,6.29947258 215.550778,5.27734738 216.230469,4.55078125 C216.91016,3.82421512 217.820307,3.4609375 218.960938,3.4609375 C220.169277,3.4609375 221.082028,3.78385094 221.699219,4.4296875 C222.316409,5.07552406 222.635417,6.03124367 222.65625,7.296875 L222.632812,7.34375 L220.492188,7.34375 C220.523438,6.59895461 220.421876,6.06250164 220.1875,5.734375 C219.953124,5.40624836 219.544274,5.2421875 218.960938,5.2421875 C218.460935,5.2421875 218.078126,5.43749805 217.8125,5.828125 C217.546874,6.21875195 217.414062,6.80989187 217.414062,7.6015625 L217.414062,11.015625 C217.414062,11.8177123 217.555988,12.4140605 217.839844,12.8046875 C218.123699,13.1953145 218.53906,13.390625 219.085938,13.390625 C219.622399,13.390625 219.996093,13.2356786 220.207031,12.9257812 C220.41797,12.6158839 220.510417,12.0859412 220.484375,11.3359375 L222.625,11.3359375 Z M226.835938,3.625 L228.875,11.9765625 L228.921875,11.9765625 L230.984375,3.625 L233.882812,3.625 L233.882812,15 L231.671875,15 L231.671875,11.6953125 L231.859375,7.2734375 L231.8125,7.265625 L229.640625,15 L228.164062,15 L226.015625,7.328125 L225.96875,7.3359375 L226.164062,11.6953125 L226.164062,15 L223.953125,15 L223.953125,3.625 L226.835938,3.625 Z M240.617188,12.03125 C240.617188,11.5885395 240.502605,11.2382825 240.273438,10.9804688 C240.04427,10.722655 239.640628,10.4687513 239.0625,10.21875 C237.880202,9.80728961 236.993493,9.33984637 236.402344,8.81640625 C235.811195,8.29296613 235.515625,7.55990055 235.515625,6.6171875 C235.515625,5.68489117 235.859372,4.92578418 236.546875,4.33984375 C237.234378,3.75390332 238.111974,3.4609375 239.179688,3.4609375 C240.263026,3.4609375 241.143226,3.78775715 241.820312,4.44140625 C242.497399,5.09505535 242.825521,5.91926586 242.804688,6.9140625 L242.789062,6.9609375 L240.632812,6.9609375 C240.632812,6.44010156 240.502605,6.01823078 240.242188,5.6953125 C239.98177,5.37239422 239.614586,5.2109375 239.140625,5.2109375 C238.697914,5.2109375 238.352866,5.34505074 238.105469,5.61328125 C237.858072,5.88151176 237.734375,6.21874797 237.734375,6.625 C237.734375,7.00000187 237.872394,7.30859254 238.148438,7.55078125 C238.424481,7.79296996 238.903642,8.06249852 239.585938,8.359375 C240.664068,8.72396016 241.475258,9.18619512 242.019531,9.74609375 C242.563805,10.3059924 242.835938,11.0624952 242.835938,12.015625 C242.835938,13.0000049 242.507816,13.7708305 241.851562,14.328125 C241.195309,14.8854195 240.322922,15.1640625 239.234375,15.1640625 C238.151036,15.1640625 237.212244,14.8476594 236.417969,14.2148438 C235.623694,13.5820281 235.239583,12.6744851 235.265625,11.4921875 L235.28125,11.4453125 L237.445312,11.4453125 C237.445312,12.148441 237.593749,12.6536443 237.890625,12.9609375 C238.187501,13.2682307 238.635414,13.421875 239.234375,13.421875 C239.703127,13.421875 240.05078,13.2968763 240.277344,13.046875 C240.503907,12.7968737 240.617188,12.4583355 240.617188,12.03125 Z" id="CMS" fill="#FFFFFF" mask="url(#mask-3)"></path>
        </g>
    </g>
</svg>