<?xml version="1.0" encoding="UTF-8"?>
<svg width="18px" height="17px" viewBox="0 0 18 17" version="1.1" xmlns="http://www.w3.org/2000/svg" xmlns:xlink="http://www.w3.org/1999/xlink">
    <!-- Generator: Sketch 43.2 (39069) - http://www.bohemiancoding.com/sketch -->
    <title>photos</title>
    <desc>Created with Sketch.</desc>
    <defs></defs>
    <g id="Page-1" stroke="none" stroke-width="1" fill="none" fill-rule="evenodd">
        <g id="photos">
            <g id="Shape">
                <path d="M15.2201365,4.18857143 L6.2202335,4.18857143 C5.73238074,4.18857143 5.33333333,4.58438095 5.33333333,5.06780952 L5.33333333,6.71733333 L5.33333333,7.09180952 L5.33333333,9.08285714 L5.33333333,9.36361905 L5.33333333,11.1070476 C5.33333333,11.5900952 5.73238074,11.9859048 6.2202335,11.9859048 L15.2201365,11.9859048 C15.707797,11.9859048 16.1068444,11.5900952 16.1068444,11.1070476 L16.1068444,9.36361905 L16.1068444,9.08285714 L16.1068444,7.09161905 L16.1068444,6.71714286 L16.1068444,5.06761905 C16.1068444,4.58438095 15.707797,4.18857143 15.2201365,4.18857143 Z"></path>
                <path d="M17,4 L6.22668444,4 C5.64264889,4 5,4.24247619 5,4.82438095 L5,6.81047619 L5,7.26152381 L5,13.1247619 L5,13.4628571 L5,15.5619048 C5,16.1445714 5.64264889,16.6666667 6.22668444,16.6666667 L17,16.6666667 C17.5842267,16.6668571 17.6666667,16.1447619 17.6666667,15.5620952 L17.6666667,13.4630476 L17.6666667,13.1249524 L17.6666667,7.26171429 L17.6666667,6.81066667 L17.6666667,4.82438095 C17.6666667,4.24247619 17.5842267,4 17,4 Z M17,7.64952381 L17,8.024 L17,10.0150476 L17,10.2958095 L17,12.0392381 C17,12.5222857 16.1515156,12.6666667 15.6666667,12.6666667 L6.71865333,12.6666667 C6.23361333,12.6666667 5.66666667,12.5222857 5.66666667,12.0392381 L5.66666667,10.2958095 L5.66666667,10.0150476 L5.66666667,8.024 L5.66666667,7.64952381 L5.66666667,5.33333333 C5.66666667,4.84990476 6.51496,4.66666667 7,4.66666667 L16.3333333,4.66666667 C16.8181822,4.66666667 17,5.51657143 17,6 L17,7.64952381 Z" fill="#999999" fill-rule="nonzero"></path>
                <path d="M4,12.6350476 L4,11.3333333 L3.76092,11.3851429 C3.28715556,11.4881905 2.68033333,10.6460952 2.57675111,10.1740952 L2.20446667,8.47047619 L2.14445778,8.196 L1.71885333,6.25104762 L1.63896889,5.8847619 L1.28656,4.27333333 C1.18336,3.80133333 1.48646222,3.33009524 1.96041778,3.2272381 L10.7029867,1.32780952 C11.1767511,1.22514286 11.6487956,1.52742857 11.7523778,1.99961905 L12.2143778,2.66666667 L13.3333333,2.66666667 L12.6263289,0.878857143 C12.5017244,0.309714286 11.9331689,-0.0539047619 11.36232,0.0702857143 L0.83592,2.35638095 C0.265262222,2.48057143 -0.100142222,3.04742857 0.0242711111,3.616 L0.448728889,5.55657143 L0.54524,5.99771429 L1.79797333,11.7264762 L1.87002222,12.0569524 L2.31875111,14.1078095 C2.44297333,14.6767619 3.01152889,15.040381 3.58237778,14.916381 L4.04777778,15.3845714 C4.01681778,15.2857143 4.00038222,15.1813333 4.00038222,15.0725714 L4.00038222,12.9733333 L4,12.6350476 Z" fill="#999999" fill-rule="nonzero"></path>
            </g>
        </g>
    </g>
</svg>