<svg id="Layer_1" xmlns="http://www.w3.org/2000/svg" xmlns:xlink="http://www.w3.org/1999/xlink" viewBox="0 0 353.4 71.3"><style>.st0{fill:#F37368;} .st1{fill:#F7A199;} .st2{fill:#F04939;} .st3{clip-path:url(#SVGID_2_);} .st4{clip-path:url(#SVGID_4_);}</style><title>Sanity</title><path class="st0" d="M264 25.5v44.7h-14.4V18.5z"/><path class="st1" d="M60.2 61.9L71 71.3l45.5-23.7-4.7-11.3zM249.6 33.1l36.6-19L280 3.4l-30.4 15.1z"/><path class="st0" d="M146.6 22v48.2h-13.8V1.5zM60.2 61.9L71 71.3l20.8-52-6.7-17.8z"/><path class="st2" d="M85.1 1.5h14.2l26.3 68.7H111zM148.7 1.5L179 48.4v21.8L132.8 1.5zM205 1.5h14.3v68.7H205zM249.6 14.1h-22V1.5h51.3l7.3 12.6H264z"/><path class="st1" d="M328.5 44.1v26.1h-14.2V44.1"/><path class="st2" d="M338.3 1.5l-24 42.6h14.2l24.9-42.6z"/><path class="st0" d="M314.3 44.1L289.5 1.5h15.6l16.7 29.2z"/><defs><path id="SVGID_1_" d="M1.1.4h352.3v70.9H1.1z"/></defs><clipPath id="SVGID_2_"><use xlink:href="#SVGID_1_" overflow="visible"/></clipPath><path class="st3 st2" d="M6.9 9.5c0 9.5 5.9 15.2 17.7 18.2l12.5 2.9c11.2 2.6 18 9 18 19.4.1 4.5-1.4 8.9-4.1 12.5 0-10.4-5.4-16-18.3-19.4l-12.3-2.8c-9.9-2.2-17.5-7.5-17.5-18.8 0-4.3 1.4-8.6 4-12"/><path class="st0" d="M179 44.9V1.5h13.8v68.7H179z"/><g><defs><path id="SVGID_3_" d="M1.1.4h352.3v70.9H1.1z"/></defs><clipPath id="SVGID_4_"><use xlink:href="#SVGID_3_" overflow="visible"/></clipPath><g class="st4"><path class="st0" d="M43.3 47.4c5.3 3.4 7.7 8.2 7.7 15.1-4.5 5.7-12.2 8.8-21.3 8.8-15.3 0-26.2-7.6-28.5-20.7h14.7c1.9 6 6.9 8.8 13.7 8.8 8.1.1 13.6-4.3 13.7-12M14.6 23.6c-5-3-7.9-8.4-7.7-14.2 4.3-5.6 11.7-9 20.7-9 15.7 0 24.7 8.3 27 19.9H40.4c-1.6-4.6-5.5-8.2-12.6-8.2-7.7.1-12.9 4.5-13.2 11.5"/></g></g></svg>